<svg width="224" height="87" viewBox="0 0 224 87" fill="none" xmlns="http://www.w3.org/2000/svg">
<rect width="224" height="87" fill="#1A0A02"/>
<g clip-path="url(#clip0_2608_4741)">
<path fill-rule="evenodd" clip-rule="evenodd" d="M68.142 49.9119C67.9787 49.9119 67.7066 49.9119 67.4346 49.803C67.0536 49.6942 66.7271 49.4765 66.455 49.0956C66.0197 48.5513 62.9723 43.7622 62.4281 42.8915L65.4211 38.8098C65.9653 38.0479 66.2918 37.5581 66.7271 37.4493C66.9992 37.3949 67.2169 37.3404 67.3801 37.3404C67.5434 37.3404 67.6522 37.2316 67.6522 37.1772C67.6522 37.0683 67.5434 37.0139 67.3257 37.0139C66.6183 37.0139 65.9109 37.0683 65.5299 37.0683C65.2034 37.0683 64.3327 37.0139 63.6253 37.0139C63.3532 37.0139 63.2444 37.0683 63.2444 37.1772C63.2444 37.286 63.3532 37.3404 63.4621 37.3404C63.6253 37.3404 63.843 37.3404 64.0607 37.3949C64.2239 37.4493 64.3872 37.5581 64.3872 37.667C64.3872 37.8302 64.3327 38.0479 64.1695 38.32C63.843 38.8098 62.2649 41.2044 61.7207 41.9663C61.0133 40.769 60.2514 39.5717 59.4351 38.1568C59.3263 38.0479 59.2719 37.8302 59.2719 37.7214C59.2719 37.6126 59.3807 37.5037 59.544 37.4493C59.7072 37.3949 59.8705 37.3949 59.9793 37.3949C60.1426 37.3949 60.2514 37.3404 60.2514 37.2316C60.2514 37.1228 60.1426 37.0683 59.8705 37.0683C59.1631 37.0683 58.0747 37.1228 57.857 37.1228C56.9863 37.1228 55.5171 37.0683 55.0817 37.0683C54.8641 37.0683 54.7008 37.1228 54.7008 37.2316C54.7008 37.3404 54.8096 37.4493 54.8641 37.4493C55.0273 37.4493 55.3538 37.5037 55.6259 37.5581C56.2789 37.7758 56.6598 38.1568 57.0952 38.8098L60.3058 43.8166L56.7687 48.6058C56.1701 49.4765 55.8436 49.7486 55.3538 49.9119C55.0817 49.9663 54.8096 49.9663 54.7008 49.9663C54.5375 49.9663 54.4287 50.0751 54.4287 50.184C54.4287 50.2928 54.5375 50.3473 54.7008 50.3473H55.0273C55.2994 50.3473 56.2245 50.2928 56.551 50.2928C56.9863 50.2928 58.1835 50.3473 58.2924 50.3473H58.6189C58.891 50.3473 58.9998 50.2928 58.9998 50.184C58.9998 50.0751 58.891 49.9663 58.7821 49.9663H58.4012C58.238 49.9663 58.0747 49.8575 58.0747 49.6942C58.0747 49.5309 58.1835 49.2588 58.3468 48.9323L61.0133 44.7962L63.8974 49.4765C64.0607 49.6942 63.8974 49.803 63.843 49.8575C63.6797 49.9119 63.5709 49.9663 63.5709 50.0751C63.5709 50.184 63.7341 50.2384 64.2239 50.2384C65.6932 50.2928 67.1625 50.2928 67.5978 50.2928H68.142C68.3597 50.2928 68.4685 50.2384 68.4685 50.1296C68.3597 50.0207 68.2508 49.9119 68.142 49.9119Z" fill="#CFC5BB"/>
<path fill-rule="evenodd" clip-rule="evenodd" d="M83.92 49.9115C83.7023 49.9115 83.4846 49.9115 83.267 49.8571C82.9405 49.8026 82.3963 49.585 81.7433 48.0067C80.6005 45.3401 77.5531 38.1564 77.1177 37.1768C76.9545 36.7958 76.8457 36.6326 76.5736 36.6326C76.4103 36.6326 76.2471 36.8503 76.0294 37.3401L71.2406 48.3877C70.8597 49.2584 70.5332 49.8026 69.7169 49.9115H69.1727C69.0095 49.9115 68.9551 50.0203 68.9551 50.0747C68.9551 50.238 69.0639 50.238 69.2816 50.238C70.2067 50.238 71.1862 50.1836 71.4039 50.1836C72.0025 50.1836 72.8187 50.238 73.4173 50.238C73.5806 50.238 73.6894 50.1836 73.6894 50.0747C73.6894 49.9659 73.635 49.9115 73.4173 49.9115H73.1452C72.6011 49.9115 72.4378 49.7482 72.4378 49.4217C72.4378 49.204 72.4922 48.7686 72.7099 48.3333L73.6894 45.9931L78.0973 45.8843C78.1517 45.8843 78.2605 45.8843 78.2605 45.9931L79.6754 49.5305C79.7842 49.7482 79.621 49.9115 79.5121 49.9115C79.3489 49.9115 79.2945 50.0203 79.2945 50.0747C79.2945 50.1836 79.5121 50.1836 79.8386 50.238C81.3623 50.2924 82.6684 50.2924 83.3214 50.2924C84.0288 50.2924 84.0832 50.238 84.0832 50.1292C84.1921 50.0203 84.0832 49.9115 83.92 49.9115ZM77.7708 44.9047H74.288L75.975 40.3332C76.1382 40.17 76.1382 40.2788 76.1382 40.3332L77.8252 44.7958L77.7708 44.9047Z" fill="#CFC5BB"/>
<path fill-rule="evenodd" clip-rule="evenodd" d="M115.864 49.9655C115.7 49.9655 115.428 49.9655 115.156 49.9111C114.503 49.7478 114.231 49.5846 113.796 48.605L109.225 37.8839C108.898 37.0675 108.735 36.8499 108.463 36.8499C108.191 36.8499 108.027 37.122 107.592 38.156C107.157 39.0267 106.34 40.9315 105.198 43.5437C104.218 45.6662 103.728 46.6458 103.021 48.2784C102.531 49.3669 102.314 49.639 102.096 49.8022C101.769 50.0199 101.388 50.0199 101.225 50.0199C101.062 50.0199 100.953 50.0743 100.953 50.1832C100.953 50.292 101.116 50.3465 101.334 50.3465C101.878 50.3465 102.749 50.292 103.021 50.292C103.239 50.292 104.055 50.3465 104.98 50.3465C105.307 50.3465 105.47 50.292 105.47 50.1832C105.47 50.0743 105.307 50.0199 105.143 50.0199C104.926 50.0199 104.654 50.0199 104.436 49.9111C104.273 49.8567 104.164 49.8022 104.164 49.5846C104.164 49.4213 104.273 49.1492 104.327 48.9315C104.762 47.7886 107.102 42.1288 107.864 40.3328L110.966 48.1696C111.238 48.7682 111.401 49.258 111.401 49.4757C111.401 49.639 111.347 49.7478 111.238 49.8022C111.075 49.9111 110.803 49.9111 110.531 49.9111C110.367 49.9111 110.259 49.9655 110.259 50.0743C110.259 50.1832 110.476 50.2376 110.694 50.2376C111.619 50.2376 112.544 50.1832 112.979 50.1832C113.632 50.1832 114.666 50.2376 115.646 50.2376C115.918 50.2376 116.081 50.2376 116.081 50.0743C116.081 50.0199 116.027 49.9655 115.864 49.9655Z" fill="#CFC5BB"/>
<path d="M123.372 36.7964C117.876 36.7964 115.754 40.6603 115.754 43.6535C115.754 46.7556 117.876 50.5107 123.155 50.5107C127.835 50.5107 130.773 47.3542 130.773 43.327C130.773 39.3542 127.943 36.7964 123.372 36.7964ZM123.917 49.5855C120.488 49.5855 118.42 46.7556 118.42 43.1093C118.42 38.7556 120.815 37.7216 122.828 37.7216C125.767 37.7216 128.107 40.1161 128.107 43.9801C128.107 48.9869 125.223 49.5855 123.917 49.5855Z" fill="#CFC5BB"/>
<path fill-rule="evenodd" clip-rule="evenodd" d="M139.7 42.7277C140.734 42.0747 141.714 41.0407 141.714 39.6801C141.714 38.7549 141.115 37.0679 137.85 37.0679C137.252 37.0679 136.054 37.1223 135.129 37.1223C134.748 37.1223 133.606 37.0679 132.68 37.0679C132.408 37.0679 132.245 37.1223 132.245 37.2311C132.245 37.34 132.354 37.3944 132.572 37.3944C132.844 37.3944 133.17 37.3944 133.279 37.4488C133.878 37.6121 134.041 37.7754 134.041 38.374C134.041 38.9182 134.041 39.408 134.041 42.0747V45.1767C134.041 46.8094 134.041 48.1699 133.986 48.9318C133.932 49.476 133.823 49.8026 133.442 49.857C133.279 49.9114 133.061 49.9114 132.789 49.9114C132.572 49.9114 132.517 50.0203 132.517 50.0747C132.517 50.1835 132.626 50.2379 132.844 50.2379C133.225 50.2379 133.66 50.2379 134.095 50.1835C134.531 50.1835 134.912 50.1835 135.129 50.1835C135.401 50.1835 136.054 50.1835 136.653 50.2379C137.252 50.2924 137.905 50.2924 138.122 50.2924C141.442 50.2924 142.965 48.3332 142.965 46.4828C143.02 44.4692 141.17 43.2175 139.7 42.7277ZM136.435 38.1563C136.435 37.993 136.49 37.8842 136.599 37.8842C136.762 37.8298 137.143 37.8298 137.36 37.8298C138.938 37.8298 139.646 39.2992 139.646 40.442C139.646 41.3128 139.319 41.9114 138.83 42.2924C138.503 42.5645 138.013 42.6189 137.415 42.6189C136.979 42.6189 136.707 42.6189 136.544 42.5645C136.49 42.5645 136.435 42.51 136.435 42.4012V38.1563V38.1563ZM138.394 49.476C137.959 49.476 137.578 49.476 137.088 49.2583C136.49 49.0407 136.435 48.6597 136.435 47.5169V43.5441L137.306 43.4352C138.013 43.4352 138.503 43.5985 138.884 43.8706C140.245 44.7958 140.571 46.1563 140.571 46.9726C140.625 48.9862 139.374 49.476 138.394 49.476Z" fill="#CFC5BB"/>
<path fill-rule="evenodd" clip-rule="evenodd" d="M157.165 46.973C157.002 46.973 157.002 47.0819 156.948 47.2995C156.893 47.6261 156.621 48.1159 156.349 48.4968C155.642 49.3132 154.771 49.422 153.138 49.422C150.69 49.422 147.479 47.4628 147.479 43.2723C147.479 41.5853 147.805 39.8438 149.166 38.7009C149.982 37.9934 151.016 37.7213 152.594 37.7213C154.281 37.7213 155.478 38.1567 156.077 38.7553C156.512 39.1907 156.784 39.8438 156.784 40.388C156.784 40.6057 156.839 40.7689 156.948 40.7689C157.111 40.7689 157.165 40.6057 157.22 40.3336C157.22 40.007 157.22 39.0274 157.274 38.4288C157.329 37.8302 157.383 37.6125 157.383 37.4492C157.383 37.3404 157.329 37.2859 157.111 37.2315C156.567 37.1771 155.968 37.0683 155.315 36.9594C154.499 36.8506 153.791 36.7961 152.703 36.7961C149.982 36.7961 148.295 37.5036 146.935 38.6465C145.193 40.1703 144.812 42.2383 144.812 43.4356C144.812 45.1227 145.302 47.0819 147.098 48.6057C148.731 49.9662 150.853 50.5104 153.302 50.5104C154.499 50.5104 155.859 50.4016 156.567 50.1295C156.893 50.0206 156.948 49.9118 157.057 49.6397C157.22 49.041 157.437 47.5172 157.437 47.2995C157.383 47.1363 157.329 46.973 157.165 46.973Z" fill="#CFC5BB"/>
<path fill-rule="evenodd" clip-rule="evenodd" d="M173.765 49.9119C173.547 49.9119 173.166 49.9119 172.677 49.6942C171.697 49.3132 170.99 48.5513 170.228 47.7894C169.52 47.1364 165.983 43.4357 165.33 42.6194C165.874 41.9663 168.595 39.4085 169.194 38.8643C169.956 38.1568 170.554 37.7758 171.098 37.5581C171.425 37.4493 171.86 37.3404 172.132 37.3404C172.296 37.3404 172.404 37.286 172.404 37.1772C172.404 37.0683 172.296 37.0139 172.078 37.0139C171.534 37.0139 170.5 37.0683 169.956 37.0683C169.466 37.0683 168.486 37.0139 168.105 37.0139C167.942 37.0139 167.833 37.0683 167.833 37.1772C167.833 37.286 167.942 37.3404 168.105 37.3404C168.269 37.3949 168.323 37.5037 168.323 37.667C168.323 37.9935 167.942 38.3745 167.398 38.9731C166.854 39.5717 164.242 42.184 163.589 42.837L163.48 42.0751C163.48 39.4085 163.48 38.9187 163.48 38.3745C163.534 37.7758 163.643 37.5037 164.187 37.4493C164.405 37.3949 164.514 37.3949 164.677 37.3949C164.84 37.3949 164.949 37.3404 164.949 37.2316C164.949 37.1228 164.84 37.0683 164.568 37.0683C163.97 37.0683 162.664 37.1228 162.228 37.1228C161.793 37.1228 160.65 37.0683 159.671 37.0683C159.399 37.0683 159.235 37.1228 159.235 37.2316C159.235 37.3404 159.344 37.3949 159.562 37.3949C159.834 37.3949 160.16 37.3949 160.269 37.4493C160.868 37.6126 161.031 37.7758 161.031 38.3745C161.031 38.9187 161.031 39.4085 161.031 42.0751V45.1772C161.031 46.8098 161.031 48.1704 160.977 48.9323C160.922 49.4765 160.813 49.803 160.433 49.8575C160.269 49.9119 160.052 49.9119 159.78 49.9119C159.562 49.9119 159.507 50.0207 159.507 50.0751C159.507 50.184 159.616 50.2384 159.888 50.2384C160.596 50.2384 161.739 50.184 162.174 50.184C162.609 50.184 163.915 50.2384 164.949 50.2384C165.167 50.2384 165.276 50.184 165.276 50.0751C165.276 49.9663 165.167 49.9119 165.004 49.9119C164.786 49.9119 164.351 49.9119 164.133 49.8575C163.698 49.803 163.534 49.4221 163.48 48.9323C163.426 48.1704 163.426 46.8098 163.426 45.1772V43.599L163.698 43.8711C164.079 44.4153 167.561 48.4425 168.378 49.15C169.139 49.8575 169.738 50.184 170.717 50.2928C171.098 50.3473 171.425 50.3473 171.969 50.3473H173.547C173.874 50.3473 173.983 50.2928 173.983 50.184C173.983 50.0207 173.874 49.9119 173.765 49.9119Z" fill="#CFC5BB"/>
<path fill-rule="evenodd" clip-rule="evenodd" d="M90.614 33.748C90.6684 33.748 90.9405 33.6935 90.8861 33.9112C90.9949 34.5099 92.1377 34.5643 92.1377 34.5643H93.1716C93.1716 34.5643 94.3688 34.5099 94.4232 33.9112C94.4232 33.9112 94.3144 33.6935 94.6953 33.748H94.9674C94.9674 33.748 95.2395 33.6935 95.1851 33.9112C95.0218 34.3466 94.3688 35.3806 93.0083 35.3806H92.1921C90.5051 35.3806 90.0154 33.8568 90.0154 33.8568C90.0154 33.8568 89.9065 33.6391 90.2875 33.6935L90.614 33.748Z" fill="#CFC5BB"/>
<path fill-rule="evenodd" clip-rule="evenodd" d="M195.638 33.748C195.693 33.748 195.965 33.6935 195.91 33.9112C196.019 34.5099 197.162 34.5643 197.162 34.5643H198.196C198.196 34.5643 199.393 34.5099 199.448 33.9112C199.448 33.9112 199.339 33.6935 199.72 33.748H199.992C199.992 33.748 200.264 33.6935 200.209 33.9112C199.992 34.3466 199.393 35.3806 198.033 35.3806H197.216C195.53 35.3806 195.04 33.8568 195.04 33.8568C195.04 33.8568 194.931 33.6391 195.312 33.6935L195.638 33.748Z" fill="#CFC5BB"/>
<path fill-rule="evenodd" clip-rule="evenodd" d="M36.9035 49.8572C36.6858 49.8572 36.4137 49.8572 35.9239 49.6939C35.3798 49.5307 35.2165 49.0953 35.0532 48.0068L33.4751 37.5034C33.4207 37.1225 33.203 36.9592 33.0942 36.9592C32.931 36.9592 32.7677 37.1225 32.6589 37.3946L27.9245 46.9728L23.1358 37.5579C22.9181 37.1225 22.7548 37.0136 22.5916 37.0136C22.4283 37.0136 22.2651 37.1769 22.2651 37.449L20.5237 48.5511C20.4693 49.0953 20.306 49.8028 19.8163 49.8572C19.5442 49.9116 19.4353 49.9116 19.2721 49.9116C19.1088 49.8572 19 49.966 19 50.0205C19 50.1837 19.1633 50.2381 19.3265 50.2381C19.8707 50.2381 20.7414 50.1837 21.0679 50.1837C21.3944 50.1837 22.2106 50.2381 22.9181 50.2381C23.1902 50.2381 23.3534 50.1837 23.3534 50.0205C23.3534 49.966 23.2446 49.8572 23.0813 49.8572C22.9181 49.8572 22.7548 49.8572 22.4827 49.8028C22.1562 49.7483 21.9386 49.6395 21.9386 49.313C21.9386 49.0409 21.9386 48.8232 21.993 48.4966L22.8092 41.8572C23.4623 43.0545 24.4962 45.1769 24.605 45.5034C24.8227 45.9932 26.1831 48.6055 26.6185 49.3674C26.8906 49.9116 27.1083 50.2381 27.3259 50.2381C27.5436 50.2381 27.6524 50.0749 28.0334 49.2585L31.7882 41.6939L32.8221 49.0409C32.8765 49.5307 32.8221 49.6939 32.7677 49.7483C32.6589 49.8028 32.55 49.8572 32.55 49.9116C32.55 50.0205 32.6589 50.0749 33.0942 50.1293C33.8016 50.1837 36.3049 50.2381 36.7402 50.2381C37.0123 50.2381 37.1755 50.1837 37.1755 50.0205C37.1755 49.9116 37.0667 49.8572 36.9035 49.8572Z" fill="#CFC5BB"/>
<path fill-rule="evenodd" clip-rule="evenodd" d="M112.055 26.6735C81.6352 26.6735 54.5896 23.1905 37.3936 19C53.2291 23.8435 80.7645 27.8163 112.055 27.8163C143.345 27.8163 170.826 23.8435 186.662 19C169.466 23.1905 142.474 26.6735 112.055 26.6735Z" fill="#CFC5BB"/>
<path fill-rule="evenodd" clip-rule="evenodd" d="M97.7967 58.6732H96.3275V63.5712C96.3275 64.7141 96.3275 65.6392 96.3819 66.129C96.4363 66.4555 96.4907 66.6732 96.7628 66.7277C96.926 66.7277 97.1981 66.7821 97.307 66.7821L97.4158 66.8365V66.9998C97.307 67.0542 97.2526 67.1086 97.1437 67.1086C96.4907 67.1086 95.7289 67.0542 95.6744 67.0542C95.62 67.0542 94.4228 67.1086 94.0419 67.1086C93.9875 67.1086 93.9331 67.1086 93.8787 67.1086L93.8242 66.8909C94.0963 66.7821 94.2052 66.7821 94.314 66.7277C94.5317 66.6732 94.5861 66.3467 94.5861 66.129C94.6405 65.6392 94.6405 64.7141 94.6405 63.5712V58.6732H92.9535C92.1917 58.6732 91.974 58.7821 91.8108 58.9998C91.7019 59.2175 91.6475 59.2719 91.5931 59.3263C91.5387 59.4351 91.4843 59.4896 91.3754 59.4896C91.2666 59.4896 91.2666 59.3807 91.2666 59.3263C91.2666 59.2719 91.321 58.9453 91.3754 58.6732L91.5387 58.0746L91.5931 57.9113C91.7564 57.8025 91.8108 57.8025 91.8108 57.8025C91.974 57.8569 92.0829 57.9113 92.2461 57.9113C92.5726 57.9658 93.0624 57.9658 93.1712 57.9658H98.1232C98.8851 57.9658 99.2116 57.8569 99.3204 57.8569C99.3749 57.8569 99.4293 57.9113 99.4293 57.9658V58.0746C99.4293 58.4556 99.3748 59.2175 99.3748 59.3807C99.3748 59.4351 99.3749 59.4896 99.3204 59.544C99.266 59.5984 99.2116 59.5984 99.2116 59.5984C99.0483 59.4896 99.0483 59.4351 99.0483 59.3263V59.2175C99.1572 58.9453 98.9395 58.6732 97.7967 58.6732Z" fill="#CFC5BB"/>
<path fill-rule="evenodd" clip-rule="evenodd" d="M103.402 58.5644V61.8297C103.565 61.8841 105.361 61.8841 105.633 61.8297C105.905 61.8297 106.068 61.7753 106.123 61.6665L106.286 61.5032C106.449 61.5032 106.449 61.5032 106.449 61.5576L106.504 61.6665C106.504 61.7209 106.34 62.4828 106.34 63.0814C106.34 63.1358 106.34 63.1903 106.34 63.2447L106.177 63.3535C106.068 63.2991 106.014 63.2447 106.014 63.1903V63.027C106.014 62.9726 106.014 62.9182 105.959 62.8093C105.905 62.7005 105.851 62.4828 105.415 62.4284C105.089 62.3739 103.62 62.3739 103.402 62.3739V65.4216C103.402 66.129 103.837 66.2923 105.034 66.2923C105.361 66.2923 105.851 66.2923 106.177 66.1835C106.449 66.0746 106.612 65.8569 106.667 65.3671C106.667 65.3127 106.667 65.2583 106.721 65.2039L106.885 65.1494L106.993 65.3127C106.993 65.476 106.885 66.2923 106.83 66.51C106.776 66.7821 106.667 66.8365 106.395 66.8909H106.123C104.327 66.8909 102.912 66.8365 102.531 66.8365C102.205 66.8365 101.443 66.8909 101.171 66.8909C101.116 66.8909 101.062 66.8909 101.007 66.8365L100.899 66.6732L101.062 66.51C101.171 66.51 101.28 66.51 101.388 66.4556C101.552 66.4011 101.606 66.3467 101.66 66.0202C101.715 65.7481 101.769 64.7685 101.769 63.3535V61.4488C101.769 59.4896 101.769 58.9998 101.715 58.7821C101.66 58.51 101.606 58.4011 101.28 58.2923C101.171 58.2923 101.007 58.2379 100.899 58.2379C100.79 58.2379 100.735 58.1835 100.735 58.0746L100.844 57.9114C100.899 57.9114 100.953 57.9114 101.007 57.9114C101.552 57.9114 102.477 57.9658 102.531 57.9658C103.837 57.9658 105.687 57.9658 105.851 57.9658C106.068 57.9658 106.34 57.9114 106.34 57.9114L106.558 57.8569C106.721 57.9658 106.721 58.0202 106.721 58.0746C106.667 58.3467 106.667 58.4556 106.612 58.6188C106.612 58.7277 106.558 59.2719 106.558 59.3807C106.558 59.4352 106.504 59.4896 106.504 59.4896L106.34 59.544C106.232 59.4896 106.232 59.4352 106.232 59.3263C106.232 59.2175 106.177 59.0542 106.123 58.8909C106.068 58.7821 105.796 58.5644 105.089 58.5644C105.034 58.6188 103.62 58.5644 103.402 58.5644Z" fill="#CFC5BB"/>
<path fill-rule="evenodd" clip-rule="evenodd" d="M123.046 58.6732H121.577V63.5712C121.577 64.7141 121.577 65.6392 121.631 66.129C121.686 66.4555 121.74 66.6732 122.012 66.7277C122.176 66.7277 122.448 66.7821 122.557 66.7821L122.665 66.8365V66.9998C122.557 67.0542 122.502 67.1086 122.448 67.1086C121.795 67.1086 121.033 67.0542 120.978 67.0542C120.924 67.0542 119.727 67.1086 119.346 67.1086C119.291 67.1086 119.237 67.1086 119.183 67.1086L119.128 66.8909C119.4 66.7821 119.509 66.7821 119.618 66.7277C119.836 66.6732 119.89 66.3467 119.89 66.129C119.944 65.6392 119.944 64.7141 119.944 63.5712V58.6732H118.258C117.496 58.6732 117.278 58.7821 117.115 58.9998C117.006 59.2175 116.952 59.2719 116.897 59.3263C116.843 59.4351 116.788 59.4896 116.734 59.4896C116.625 59.4896 116.625 59.3807 116.625 59.3263C116.625 59.2719 116.679 58.9453 116.734 58.6732L116.897 58.0746L116.952 57.9113C117.115 57.8025 117.169 57.8025 117.169 57.8025C117.332 57.8569 117.441 57.9113 117.605 57.9113C117.931 57.9658 118.421 57.9658 118.53 57.9658H123.482C124.244 57.9658 124.57 57.8569 124.679 57.8569C124.733 57.8569 124.788 57.9113 124.788 57.9658V58.0746C124.788 58.4556 124.733 59.2175 124.733 59.3807C124.733 59.4351 124.733 59.4896 124.679 59.544C124.624 59.5984 124.57 59.5984 124.57 59.5984C124.407 59.4896 124.407 59.4351 124.407 59.3263V59.2175C124.407 58.9453 124.189 58.6732 123.046 58.6732Z" fill="#CFC5BB"/>
<path fill-rule="evenodd" clip-rule="evenodd" d="M126.912 66.0749C126.967 65.5851 126.967 64.66 126.967 63.5715V61.4491C126.967 59.6531 126.967 59.3266 126.967 58.9457C126.967 58.5647 126.858 58.4014 126.531 58.347C126.423 58.347 126.259 58.2926 126.151 58.2926C126.042 58.2926 125.987 58.2382 125.987 58.1293L126.096 57.9661C126.151 57.9661 126.205 57.9661 126.259 57.9661C126.804 57.9661 127.511 58.0205 127.62 58.0205C127.892 58.0205 129.252 57.9661 129.797 57.9661C130.613 57.9661 131.484 58.0749 132.082 58.6191C132.354 58.8912 132.79 59.381 132.844 60.1974C132.953 62.1021 131.211 62.9729 129.47 62.9729C129.47 62.9729 129.089 62.9729 129.089 62.864C129.089 62.8096 129.089 62.7552 129.089 62.7008C129.089 62.7008 129.089 62.7008 129.089 62.6463C129.144 62.5375 129.307 62.5919 129.416 62.5919C130.558 62.5919 131.647 61.7756 131.647 60.7416C131.647 60.3606 131.592 59.5987 130.994 59.0001C130.613 58.6191 130.177 58.4559 129.688 58.4559H129.198C128.98 58.4559 128.817 58.4559 128.708 58.5103C128.708 58.5103 128.654 58.5647 128.654 58.6735V63.4627C128.654 64.6055 128.654 65.5307 128.708 66.0205C128.763 66.347 128.817 66.5647 129.144 66.6191C129.307 66.6191 129.579 66.6736 129.688 66.6736L129.851 66.7824L129.797 66.9457C129.688 67.0001 129.633 67.0001 129.579 67.0001C128.926 67.0001 127.729 66.9457 127.674 66.9457C127.62 66.9457 126.858 67.0001 126.531 67.0001C126.477 67.0001 126.423 67.0001 126.368 67.0001L126.259 66.8368L126.423 66.6736C126.531 66.6736 126.64 66.6736 126.749 66.6191C126.858 66.5647 126.858 66.2382 126.912 66.0749Z" fill="#CFC5BB"/>
<path fill-rule="evenodd" clip-rule="evenodd" d="M117.932 66.8914C117.932 67.0002 117.877 67.0002 117.388 67.0002C116.952 67.0002 116.082 67.0002 115.048 67.0002C114.83 67.0002 114.667 67.0002 114.667 66.8914C114.667 66.837 114.667 66.7826 114.83 66.7826C114.939 66.7826 114.993 66.6737 114.939 66.5104L114.014 64.1159C113.959 64.0615 113.959 64.007 113.905 64.007L110.912 64.1159L110.259 65.6941C110.15 65.9662 110.096 66.2928 110.096 66.4016C110.096 66.6193 110.204 66.7281 110.585 66.7281H110.749C110.912 66.7281 110.912 66.7825 110.912 66.837C110.912 66.9458 110.857 66.9458 110.694 66.9458C110.313 66.9458 109.715 66.8914 109.334 66.8914C109.225 66.8914 108.572 66.9458 107.919 66.9458C107.756 66.9458 107.701 66.9458 107.701 66.837C107.701 66.7825 107.756 66.7281 107.864 66.7281H108.245C108.79 66.6737 109.007 66.2928 109.279 65.6941L112.49 58.2383C112.653 57.9118 112.708 57.7485 112.871 57.7485C113.034 57.7485 113.089 57.8574 113.252 58.1295C113.524 58.7826 115.592 63.6261 116.354 65.422C116.843 66.5104 117.17 66.6737 117.388 66.6737C117.551 66.6737 117.714 66.7281 117.823 66.7281C117.823 66.7281 117.932 66.7825 117.932 66.8914ZM113.633 63.2996L112.49 60.3064C112.49 60.2519 112.49 60.1975 112.381 60.3064L111.238 63.4084H113.578L113.633 63.2996Z" fill="#CFC5BB"/>
<path fill-rule="evenodd" clip-rule="evenodd" d="M99.8628 49.9662C99.5907 49.9662 99.2642 49.9662 99.0465 49.9118C98.5568 49.8029 98.5023 49.3132 98.5023 47.7893L98.3391 37.3948C98.3391 37.0683 98.2302 36.7961 98.0126 36.7961C97.7949 36.7961 97.4684 37.0138 97.2507 37.3948C95.6726 39.4084 89.0336 47.1363 88.7616 47.4084V39.1363C88.7616 38.0478 88.816 37.7757 89.2513 37.6125C89.5234 37.5036 89.6867 37.5036 89.9043 37.5036C90.122 37.5036 90.1764 37.3948 90.1764 37.3404C90.1764 37.1771 90.0132 37.1771 89.7411 37.1771C88.816 37.1771 87.2923 37.2315 86.9114 37.2315C86.6937 37.2315 86.0951 37.1771 85.2244 37.1771C84.9523 37.1771 84.7891 37.1771 84.7891 37.3404C84.7891 37.4492 84.8979 37.5036 85.1156 37.5036C85.2788 37.5036 85.4421 37.5036 85.6597 37.558C86.1495 37.7213 86.3128 37.9934 86.3128 39.0274V50.0751C86.3128 50.456 86.476 50.6193 86.5848 50.6193C86.9114 50.6193 87.1834 50.456 87.3467 50.2383C88.4895 48.8778 95.6182 40.6601 95.9991 40.3336L95.9447 48.007C95.8903 49.3676 95.8903 49.8029 95.5094 49.9118C95.1829 50.0206 95.0196 50.0206 94.7475 50.0206C94.5298 50.0206 94.421 50.1295 94.421 50.1839C94.421 50.3472 94.5843 50.3472 94.8563 50.3472C96.0535 50.3472 97.414 50.2927 97.7405 50.2927C97.9037 50.2927 98.7744 50.3472 99.6995 50.3472C99.9716 50.3472 100.135 50.3472 100.135 50.1839C100.135 50.0751 100.026 49.9662 99.8628 49.9662Z" fill="#CFC5BB"/>
<path fill-rule="evenodd" clip-rule="evenodd" d="M189.22 49.9662C188.948 49.9662 188.622 49.9662 188.404 49.9118C187.914 49.8029 187.86 49.3132 187.86 47.7893L187.697 37.3948C187.697 37.0683 187.588 36.7961 187.37 36.7961C187.152 36.7961 186.826 37.0138 186.608 37.3948C185.03 39.4084 178.391 47.1363 178.119 47.4084V39.1363C178.119 38.0478 178.173 37.7757 178.609 37.6125C178.881 37.5036 179.044 37.5036 179.262 37.5036C179.479 37.5036 179.534 37.3948 179.534 37.3404C179.534 37.1771 179.371 37.1771 179.099 37.1771C178.173 37.1771 176.65 37.2315 176.269 37.2315C176.051 37.2315 175.453 37.1771 174.582 37.1771C174.31 37.1771 174.146 37.1771 174.146 37.3404C174.146 37.4492 174.255 37.5036 174.473 37.5036C174.636 37.5036 174.8 37.5036 175.017 37.558C175.507 37.7213 175.67 37.9934 175.67 39.0274V50.0751C175.67 50.456 175.833 50.6193 175.942 50.6193C176.269 50.6193 176.541 50.456 176.704 50.2383C177.847 48.8778 184.976 40.6601 185.357 40.3336L185.302 48.007C185.248 49.3676 185.248 49.8029 184.867 49.9118C184.54 50.0206 184.377 50.0206 184.105 50.0206C183.887 50.0206 183.778 50.1295 183.778 50.1839C183.778 50.3472 183.942 50.3472 184.214 50.3472C185.411 50.3472 186.771 50.2927 187.098 50.2927C187.261 50.2927 188.132 50.3472 189.057 50.3472C189.329 50.3472 189.492 50.3472 189.492 50.1839C189.492 50.0751 189.384 49.9662 189.22 49.9662Z" fill="#CFC5BB"/>
<path fill-rule="evenodd" clip-rule="evenodd" d="M204.728 49.9665C204.456 49.9665 204.129 49.9665 203.912 49.912C203.422 49.8032 203.368 49.3134 203.368 47.7896L203.204 37.395C203.204 37.0685 203.095 36.7964 202.878 36.7964C202.66 36.7964 202.334 37.0141 202.116 37.395C200.538 39.4086 193.899 47.1365 193.627 47.4086V39.1365C193.627 38.0481 193.681 37.776 194.117 37.6127C194.389 37.5039 194.552 37.5039 194.77 37.5039C194.987 37.5039 195.042 37.395 195.042 37.3406C195.042 37.1773 194.878 37.1773 194.606 37.1773C193.681 37.1773 192.158 37.2318 191.777 37.2318C191.559 37.2318 190.96 37.1773 190.09 37.1773C189.818 37.1773 189.654 37.1773 189.654 37.3406C189.654 37.4494 189.763 37.5039 189.981 37.5039C190.144 37.5039 190.307 37.5039 190.525 37.5583C191.015 37.7216 191.178 37.9937 191.178 39.0277V50.0753C191.178 50.4562 191.341 50.6195 191.45 50.6195C191.777 50.6195 192.049 50.4563 192.212 50.2386C193.355 48.878 200.483 40.6603 200.864 40.3338L200.81 48.0073C200.756 49.3678 200.755 49.8032 200.375 49.912C200.048 50.0209 199.885 50.0209 199.613 50.0209C199.395 50.0209 199.286 50.1297 199.286 50.1841C199.286 50.3474 199.449 50.3474 199.722 50.3474C200.919 50.3474 202.279 50.293 202.606 50.293C202.769 50.293 203.64 50.3474 204.565 50.3474C204.837 50.3474 205 50.3474 205 50.1841C205 50.0753 204.891 49.9665 204.728 49.9665Z" fill="#CFC5BB"/>
<path fill-rule="evenodd" clip-rule="evenodd" d="M52.7375 49.9663C52.4654 49.9663 52.1389 49.9663 51.9213 49.9118C51.4315 49.803 51.3771 49.3132 51.3771 47.7894C51.3771 47.7894 51.3227 41.6941 51.3227 41.1499C51.3227 39.8982 51.3227 37.939 51.3771 37.5037C51.4315 37.1771 51.2682 36.905 51.0506 36.905C50.7785 36.905 50.452 37.1771 50.1255 37.5037C49.7445 37.8846 49.3636 38.3744 48.765 39.0275C46.2618 42.0207 41.7995 47.2452 41.5819 47.4084V39.1363C41.5819 38.0479 41.6363 37.7758 42.0716 37.6125C42.3437 37.5037 42.507 37.5037 42.7246 37.5037C42.9423 37.5037 42.9967 37.3948 42.9967 37.3404C42.9967 37.1771 42.8335 37.1771 42.5614 37.1771C41.6363 37.1771 40.1126 37.2316 39.7317 37.2316C39.514 37.2316 38.9154 37.1771 38.0447 37.1771C37.7726 37.1771 37.6094 37.1771 37.6094 37.3404C37.6094 37.4492 37.7182 37.5037 37.9359 37.5037C38.0991 37.5037 38.2624 37.5037 38.4801 37.5581C38.9698 37.7214 39.1331 37.9935 39.1331 39.0275C39.1331 39.0275 39.1331 47.2452 39.1331 47.5173C39.1331 48.5513 39.0787 49.6941 38.9698 50.1839C38.9154 50.5649 39.1331 50.6737 39.2419 50.6737C39.5684 50.6737 39.7861 50.456 40.0038 50.2928C40.3303 50.0207 40.9833 49.2588 41.7451 48.388C44.2483 45.5037 48.4929 40.6057 48.765 40.388L48.7106 48.0615C48.6562 49.422 48.6562 49.8574 48.2753 49.9663C47.9488 50.0751 47.7855 50.0751 47.5134 50.0751C47.2957 50.0751 47.1869 50.1839 47.1869 50.2384C47.1869 50.4016 47.3502 50.4016 47.6222 50.4016C48.8194 50.4016 50.1799 50.3472 50.5064 50.3472C50.6696 50.3472 51.5403 50.4016 52.4654 50.4016C52.7375 50.4016 52.9008 50.4016 52.9008 50.2384C53.0096 50.0751 52.9008 49.9663 52.7375 49.9663Z" fill="#CFC5BB"/>
</g>
<defs>
<clipPath id="clip0_2608_4741">
<rect width="186" height="48" fill="white" transform="translate(19 19)"/>
</clipPath>
</defs>
</svg>
