<svg width="224" height="87" viewBox="0 0 224 87" fill="none" xmlns="http://www.w3.org/2000/svg">
<rect width="224" height="87" fill="#1A0A02"/>
<path d="M100.289 37.6691L162.465 16H64.7988L100.289 37.6691Z" fill="url(#paint0_linear_2608_4732)"/>
<path d="M32.4983 42.5977H32.6023L37.5584 57.551H33.7114L32.429 53.3826H27.9581L26.9531 57.551H25.0469L29.795 43.524L32.4983 42.5977ZM28.1661 52.5224H32.1864L30.003 45.4097H29.899L28.1661 52.5224ZM44.4553 50.8683H43.9008V57.551H40.1577V42.8954H44.9059C45.9803 42.8954 46.8814 42.9947 47.6438 43.1601C48.4063 43.3255 48.9955 43.5901 49.446 43.921C49.8966 44.2518 50.2432 44.6488 50.4511 45.1119C50.6591 45.5751 50.763 46.1044 50.763 46.6668C50.763 47.0969 50.6937 47.4608 50.5551 47.7916C50.4165 48.1224 50.2432 48.4533 50.0352 48.7179C49.8273 48.9826 49.5847 49.2142 49.2728 49.4127C48.9955 49.6112 48.7182 49.7766 48.441 49.942C47.7478 50.3059 46.9853 50.5706 46.1535 50.7029V50.8021L48.8569 51.6292L52.0107 57.4848H48.0597L44.4553 50.8683ZM43.9008 50.1074H44.3513C45.1485 50.1074 45.7377 49.8758 46.1882 49.3796C46.6388 48.8833 46.8467 48.0563 46.8467 46.8653C46.8467 45.6743 46.6388 44.8142 46.1882 44.351C45.7377 43.8548 45.1485 43.6232 44.3513 43.6232H43.9008V50.1074ZM57.1054 57.551V43.524H56.8975L53.0505 45.6082H52.9465V42.8954H65.0421V45.6082H64.8688L61.0564 43.524H60.8138V57.551H57.1054V57.551ZM65.562 49.4788H71.8697V50.5375H65.562V49.4788ZM76.202 57.551V43.524H75.9594L72.1123 45.6082H72.0084V42.8954H84.104V45.6082H83.9653L80.153 43.524H79.9104V57.551H76.202V57.551ZM86.9112 57.551V42.8954H90.6543V49.4788H94.7093V42.8954H98.4523V57.551H94.7093V50.339H90.6543V57.551H86.9112ZM102.507 42.8954H111.865V44.8804L106.216 43.524V49.5781L111.31 49.0488V50.6036L106.216 50.0743V56.8563L111.865 55.5991V57.4848H102.507V42.8954ZM121.361 42.5977H121.465L126.421 57.551H122.574L121.292 53.3826H116.856L115.851 57.551H113.944L118.693 43.524L121.361 42.5977ZM117.064 52.5224H121.084L118.901 45.4097H118.797L117.064 52.5224ZM131.1 57.551V43.524H130.858L127.01 45.6082H126.906V42.8954H139.002V45.6082H138.863L135.051 43.524H134.808V57.551H131.1V57.551ZM146.107 50.8683H145.552V57.551H141.809V42.8954H146.558C147.632 42.8954 148.533 42.9947 149.295 43.1601C150.058 43.3255 150.647 43.5901 151.098 43.921C151.548 44.2518 151.895 44.6488 152.103 45.1119C152.311 45.5751 152.415 46.1044 152.415 46.6668C152.415 47.0969 152.345 47.4608 152.207 47.7916C152.068 48.1224 151.895 48.4533 151.687 48.7179C151.479 48.9826 151.236 49.2142 150.924 49.4127C150.647 49.6112 150.37 49.7766 150.093 49.942C149.399 50.3059 148.637 50.5706 147.805 50.7029V50.8021L150.509 51.6292L153.662 57.4848H149.711L146.107 50.8683ZM145.552 50.1074H146.003C146.8 50.1074 147.389 49.8758 147.84 49.3796C148.29 48.8833 148.498 48.0563 148.498 46.8653C148.498 45.6743 148.29 44.8142 147.84 44.351C147.389 43.8548 146.8 43.6232 146.003 43.6232H145.552V50.1074ZM156.262 42.8954H165.619V44.8804L159.97 43.524V49.5781L165.065 49.0488V50.6036L159.97 50.0743V56.8563L165.619 55.5991V57.4848H156.262V42.8954ZM168.253 56.1946C168.253 55.7645 168.427 55.4006 168.773 55.1029C169.12 54.8051 169.501 54.6397 169.952 54.6397C170.402 54.6397 170.783 54.8051 171.13 55.1029C171.477 55.4006 171.65 55.7976 171.65 56.1946C171.65 56.5916 171.477 56.9886 171.13 57.2863C170.783 57.5841 170.402 57.7495 169.952 57.7495C169.501 57.7495 169.12 57.5841 168.773 57.2863C168.427 56.9886 168.253 56.5916 168.253 56.1946ZM179.101 50.8683H178.547V57.551H174.804V42.8954H179.552C180.626 42.8954 181.527 42.9947 182.29 43.1601C183.052 43.3255 183.641 43.5901 184.092 43.921C184.543 44.2518 184.889 44.6488 185.097 45.1119C185.305 45.5751 185.409 46.1044 185.409 46.6668C185.409 47.0969 185.34 47.4608 185.201 47.7916C185.062 48.1224 184.889 48.4533 184.681 48.7179C184.473 48.9826 184.231 49.2142 183.919 49.4127C183.641 49.6112 183.364 49.7766 183.087 49.942C182.394 50.3059 181.631 50.5706 180.8 50.7029V50.8021L183.503 51.6292L186.657 57.4848H182.706L179.101 50.8683ZM178.512 50.1074H178.963C179.76 50.1074 180.349 49.8758 180.8 49.3796C181.25 48.8833 181.458 48.0563 181.458 46.8653C181.458 45.6743 181.25 44.8142 180.8 44.351C180.349 43.8548 179.76 43.6232 178.963 43.6232H178.512V50.1074ZM194.905 57.8487C193.034 57.8487 191.578 57.4187 190.608 56.5254C189.637 55.6322 189.152 54.4412 189.152 52.9194V42.8954H192.895V53.6803C192.895 54.772 193.172 55.5991 193.692 56.1284C194.212 56.6578 194.94 56.9224 195.841 56.9224C196.812 56.9224 197.574 56.6578 198.129 56.0954C198.718 55.533 198.995 54.739 198.995 53.7134L198.198 42.9285H200V53.3826C200 54.8382 199.619 55.963 198.822 56.7239C197.99 57.4848 196.708 57.8487 194.905 57.8487ZM55.4419 64.2006H60.294V65.2923H58.4571V70.1554H57.2787V65.2923H55.4419V64.2006ZM65.8739 66.9795C66.0472 67.0457 66.2205 67.178 66.3591 67.3103C66.4977 67.4096 66.6017 67.575 66.7057 67.7735C66.8097 67.972 66.8443 68.2036 66.8443 68.4682C66.8443 68.6998 66.8097 68.8983 66.7057 69.1299C66.6017 69.3284 66.4631 69.5269 66.2898 69.6592C66.1165 69.8246 65.9086 69.9239 65.6313 70.0231C65.3887 70.1224 65.1114 70.1554 64.7995 70.1554H62.1308V64.2006H64.6955C64.9728 64.2006 65.2154 64.2337 65.458 64.3329C65.7006 64.4321 65.8739 64.5314 66.0472 64.6968C66.2205 64.8622 66.3591 65.0276 66.4284 65.2261C66.4977 65.4246 66.5671 65.6231 66.5671 65.8547C66.5671 66.0532 66.5324 66.2186 66.4631 66.384C66.3938 66.5164 66.2898 66.6487 66.2205 66.7479C66.1165 66.8141 65.9779 66.9133 65.8739 66.9795ZM63.3439 66.6156H64.6262C64.8342 66.6156 65.0421 66.5494 65.1807 66.4171C65.3194 66.2848 65.4233 66.1194 65.4233 65.9209C65.4233 65.7224 65.354 65.557 65.1807 65.4246C65.0421 65.2923 64.8342 65.2261 64.6262 65.2261H63.3439V66.6156ZM64.7302 69.163C65.0075 69.163 65.2501 69.0968 65.4233 68.9314C65.5966 68.766 65.7006 68.5675 65.7006 68.3359C65.7006 68.1043 65.5966 67.9058 65.4233 67.7404C65.2501 67.575 65.0075 67.5088 64.7302 67.5088H63.3439V69.2291H64.7302V69.163ZM73.2907 69.0637V70.1554H68.8891V64.2006H73.1867V65.2923H70.0675V66.5825H72.9441V67.6743H70.0675V69.0968H73.2907V69.0637ZM77.6922 64.2006C78.0042 64.2006 78.2814 64.2667 78.524 64.366C78.7667 64.4652 79.0093 64.5976 79.2172 64.7961C79.4252 64.9615 79.5638 65.193 79.6678 65.4246C79.7717 65.6562 79.841 65.9209 79.841 66.1855C79.841 66.4502 79.7717 66.7149 79.6678 66.9464C79.5638 67.178 79.3905 67.4096 79.2172 67.575C79.0093 67.7404 78.8013 67.9058 78.524 68.0051C78.2468 68.1043 78.0042 68.1705 77.6922 68.1705H76.5485V70.1554H75.3702V64.2006H77.6922V64.2006ZM77.6922 67.0788C77.8309 67.0788 77.9349 67.0457 78.0388 67.0126C78.1428 66.9464 78.2468 66.8803 78.3508 66.8141C78.4201 66.7479 78.4894 66.6487 78.5587 66.5164C78.628 66.4171 78.628 66.2848 78.628 66.1855C78.628 66.0532 78.5934 65.954 78.5587 65.8547C78.4894 65.7555 78.4201 65.6562 78.3508 65.557C78.2814 65.4908 78.1775 65.4246 78.0388 65.3585C77.9349 65.2923 77.7962 65.2923 77.6922 65.2923H76.5485V67.0788H77.6922V67.0788ZM82.7523 67.178C82.7523 67.4758 82.787 67.7073 82.8909 67.972C82.9949 68.2036 83.1335 68.4021 83.2722 68.6006C83.4455 68.766 83.6187 68.8983 83.8614 68.9976C84.0693 69.0968 84.3119 69.1299 84.5545 69.1299C84.7625 69.1299 84.9704 69.0968 85.1437 69.0306C85.317 68.9645 85.4556 68.8983 85.5942 68.799C85.7329 68.6998 85.8369 68.6006 85.9408 68.4682C86.0448 68.3359 86.1141 68.2036 86.1488 68.0712H87.3965C87.3271 68.369 87.1885 68.6336 87.0499 68.8983C86.8766 69.163 86.6687 69.3945 86.426 69.5599C86.1834 69.7584 85.9062 69.9239 85.5942 70.0231C85.2823 70.1554 84.9357 70.1885 84.5545 70.1885C84.1386 70.1885 83.7574 70.1223 83.3762 69.9569C82.9949 69.7915 82.683 69.593 82.4057 69.3284C82.1285 69.0637 81.9205 68.7329 81.7472 68.369C81.5739 68.0051 81.5046 67.6081 81.5046 67.178C81.5046 66.7479 81.5739 66.3509 81.7472 65.987C81.9205 65.6231 82.1285 65.2923 82.4057 65.0276C82.683 64.763 82.9949 64.5314 83.3762 64.3991C83.7574 64.2337 84.1386 64.1675 84.5545 64.1675C84.9011 64.1675 85.2477 64.2337 85.5596 64.3329C85.8715 64.4652 86.1488 64.5976 86.3914 64.7961C86.634 64.9946 86.8419 65.2261 86.9806 65.4577C87.1539 65.7224 87.2578 65.987 87.3271 66.2848H86.0795C86.0448 66.1525 85.9755 66.0201 85.9062 65.8878C85.8369 65.7555 85.6982 65.6562 85.5942 65.557C85.4556 65.4577 85.317 65.3915 85.1437 65.3254C84.9704 65.2592 84.7625 65.2261 84.5545 65.2261C84.3119 65.2261 84.0693 65.2592 83.8614 65.3585C83.6534 65.4577 83.4455 65.59 83.2722 65.7554C83.0989 65.9209 82.9603 66.1194 82.8909 66.384C82.787 66.6156 82.7523 66.8803 82.7523 67.178ZM92.7684 70.1554L90.5503 67.4427V70.1554H89.372V64.2006H90.5503V66.8472L92.6298 64.2006H94.0161L91.6941 67.1449L94.1894 70.1885H92.7684V70.1554ZM101.121 67.178C101.121 67.6081 101.052 68.0051 100.878 68.369C100.705 68.7329 100.497 69.0637 100.22 69.3284C99.9426 69.593 99.6307 69.8246 99.2495 69.9569C98.8682 70.1223 98.487 70.1885 98.0711 70.1885C97.6552 70.1885 97.274 70.1223 96.8927 69.9569C96.5115 69.7915 96.1996 69.593 95.9223 69.3284C95.645 69.0637 95.4371 68.7329 95.2638 68.369C95.0905 68.0051 95.0212 67.6081 95.0212 67.178C95.0212 66.7479 95.0905 66.3509 95.2638 65.987C95.4371 65.6231 95.645 65.2923 95.9223 65.0276C96.1996 64.763 96.5115 64.5314 96.8927 64.3991C97.274 64.2337 97.6552 64.1675 98.0711 64.1675C98.487 64.1675 98.8682 64.2337 99.2495 64.3991C99.6307 64.5645 99.9426 64.763 100.22 65.0276C100.497 65.2923 100.705 65.6231 100.878 65.987C101.052 66.3509 101.121 66.7479 101.121 67.178ZM96.2689 67.178C96.2689 67.4758 96.3035 67.7073 96.4075 67.972C96.5115 68.2036 96.6501 68.4021 96.7888 68.6006C96.962 68.766 97.1353 68.8983 97.3779 68.9976C97.5859 69.0968 97.8285 69.1299 98.0711 69.1299C98.3137 69.1299 98.5563 69.0968 98.7643 68.9976C98.9722 68.8983 99.1802 68.766 99.3534 68.6006C99.5267 68.4351 99.6654 68.2366 99.7347 67.972C99.804 67.7073 99.8733 67.4758 99.8733 67.178C99.8733 66.8803 99.8386 66.6487 99.7347 66.384C99.6307 66.1194 99.4921 65.9539 99.3534 65.7554C99.1802 65.59 99.0069 65.4577 98.7643 65.3585C98.5563 65.2592 98.3137 65.2261 98.0711 65.2261C97.8285 65.2261 97.5859 65.2592 97.3779 65.3585C97.17 65.4577 96.962 65.59 96.7888 65.7554C96.6155 65.9209 96.4768 66.1194 96.4075 66.384C96.3035 66.6156 96.2689 66.8803 96.2689 67.178ZM106.909 70.1554V66.2186L104.136 70.1554H103.096V64.2006H104.275V68.1374L107.048 64.2006H108.087V70.1554H106.909ZM105.627 62.9104C105.73 62.9104 105.834 62.8773 105.904 62.8442C105.973 62.8111 106.042 62.7449 106.077 62.6788C106.112 62.6126 106.146 62.5464 106.181 62.4472H107.013C106.978 62.6126 106.944 62.778 106.874 62.9104C106.805 63.0427 106.701 63.175 106.562 63.2743C106.424 63.3735 106.285 63.4728 106.146 63.5389C105.973 63.6051 105.8 63.6382 105.627 63.6382C105.453 63.6382 105.28 63.6051 105.107 63.5389C104.933 63.4728 104.795 63.4066 104.691 63.2743C104.552 63.175 104.483 63.0427 104.379 62.9104C104.31 62.778 104.24 62.6126 104.24 62.4472H105.072C105.107 62.5464 105.141 62.6126 105.176 62.6788C105.211 62.7449 105.28 62.8111 105.349 62.8442C105.419 62.8773 105.523 62.9104 105.627 62.9104ZM116.648 66.4502C116.96 66.4502 117.202 66.4833 117.48 66.5825C117.722 66.6818 117.93 66.8141 118.138 66.9795C118.311 67.1449 118.45 67.3434 118.554 67.575C118.658 67.8066 118.693 68.0381 118.693 68.3028C118.693 68.5675 118.658 68.7991 118.554 69.0306C118.45 69.2622 118.311 69.4607 118.138 69.6261C117.965 69.7915 117.757 69.9239 117.48 70.0231C117.237 70.1224 116.96 70.1554 116.648 70.1554H114.014V64.2006H118.242V65.2923H115.227V66.4833H116.648V66.4502ZM115.192 67.5088V69.1299H116.648C116.89 69.1299 117.098 69.0637 117.272 68.8983C117.41 68.766 117.514 68.5675 117.514 68.3028C117.514 68.0712 117.445 67.8727 117.272 67.7073C117.133 67.575 116.925 67.4757 116.648 67.4757H115.192V67.5088ZM125.312 64.2006L123.163 68.7329C123.059 68.9975 122.921 69.2291 122.817 69.3945C122.678 69.593 122.574 69.7584 122.436 69.8577C122.297 69.99 122.124 70.0562 121.985 70.1223C121.812 70.1885 121.638 70.2216 121.431 70.2216C121.292 70.2216 121.153 70.2216 121.015 70.1885C120.945 70.1885 120.876 70.1554 120.841 70.1554V69.163C120.876 69.163 120.911 69.196 120.945 69.196C120.98 69.196 121.015 69.196 121.049 69.196C121.084 69.196 121.153 69.196 121.223 69.196C121.431 69.196 121.604 69.1299 121.708 69.0306C121.846 68.9314 121.95 68.7991 121.985 68.6667L122.089 68.4351L120.044 64.1675H121.292L122.748 67.1449L124.134 64.1675H125.312V64.2006ZM131.689 64.2006V70.1554H130.511V65.2923H128.57L128.327 68.369C128.258 68.9645 128.085 69.4276 127.773 69.7254C127.461 70.0562 127.045 70.1885 126.56 70.1885C126.491 70.1885 126.421 70.1885 126.352 70.1885C126.283 70.1885 126.248 70.1885 126.179 70.1885C126.109 70.1885 126.075 70.1885 126.04 70.1554V69.163H126.179C126.456 69.163 126.699 69.0637 126.872 68.8983C127.045 68.7329 127.149 68.5013 127.184 68.2036L127.496 64.1675H131.689V64.2006ZM134.046 70.1554V64.2006H135.224V66.1855H136.333C136.645 66.1855 136.923 66.2517 137.165 66.351C137.408 66.4502 137.65 66.5825 137.858 66.781C138.066 66.9464 138.205 67.178 138.309 67.4096C138.413 67.6412 138.482 67.9058 138.482 68.1705C138.482 68.4352 138.413 68.6998 138.309 68.9314C138.205 69.163 138.032 69.3945 137.858 69.5599C137.65 69.7254 137.442 69.8908 137.165 69.99C136.923 70.0893 136.645 70.1554 136.333 70.1554H134.046V70.1554ZM135.259 67.2773V69.0637H136.368C136.507 69.0637 136.611 69.0306 136.715 68.9976C136.819 68.9314 136.923 68.8652 137.027 68.799C137.096 68.7329 137.165 68.6336 137.235 68.5013C137.304 68.4021 137.304 68.2697 137.304 68.1705C137.304 68.0382 137.269 67.9389 137.235 67.8397C137.165 67.7404 137.096 67.6412 137.027 67.5419C136.957 67.4757 136.853 67.4096 136.715 67.3434C136.611 67.2773 136.472 67.2773 136.368 67.2773H135.259V67.2773ZM144.097 66.9795C144.27 67.0457 144.443 67.178 144.582 67.3103C144.721 67.4096 144.825 67.575 144.929 67.7735C145.033 67.972 145.067 68.2036 145.067 68.4682C145.067 68.6998 145.033 68.8983 144.929 69.1299C144.825 69.3284 144.686 69.5269 144.513 69.6592C144.339 69.8246 144.131 69.9239 143.854 70.0231C143.612 70.1224 143.334 70.1554 143.022 70.1554H140.354V64.2006H142.918C143.196 64.2006 143.438 64.2337 143.681 64.3329C143.924 64.4321 144.097 64.5314 144.27 64.6968C144.443 64.8622 144.582 65.0276 144.651 65.2261C144.721 65.4246 144.79 65.6231 144.79 65.8547C144.79 66.0532 144.755 66.2186 144.686 66.384C144.617 66.5164 144.513 66.6487 144.443 66.7479C144.339 66.8141 144.201 66.9133 144.097 66.9795ZM141.567 66.6156H142.849C143.057 66.6156 143.265 66.5494 143.404 66.4171C143.542 66.2848 143.646 66.1194 143.646 65.9209C143.646 65.7224 143.577 65.557 143.404 65.4246C143.265 65.2923 143.057 65.2261 142.849 65.2261H141.567V66.6156ZM142.953 69.163C143.23 69.163 143.473 69.0968 143.646 68.9314C143.82 68.766 143.924 68.5675 143.924 68.3359C143.924 68.1043 143.82 67.9058 143.646 67.7404C143.473 67.575 143.23 67.5088 142.953 67.5088H141.567V69.2291H142.953V69.163ZM147.632 70.1554H146.384L148.706 64.2006H149.815L152.137 70.1554H150.89L150.439 68.9314H148.048L147.632 70.1554ZM150.058 67.8727L149.261 65.6893L148.464 67.8727H150.058ZM156.192 64.2006C156.504 64.2006 156.782 64.2667 157.024 64.366C157.267 64.4652 157.509 64.5976 157.717 64.7961C157.925 64.9615 158.064 65.193 158.168 65.4246C158.272 65.6562 158.341 65.9209 158.341 66.1855C158.341 66.4502 158.272 66.7149 158.168 66.9464C158.064 67.178 157.891 67.4096 157.717 67.575C157.509 67.7404 157.301 67.9058 157.024 68.0051C156.747 68.1043 156.504 68.1705 156.192 68.1705H155.049V70.1554H153.87V64.2006H156.192V64.2006ZM156.192 67.0788C156.331 67.0788 156.435 67.0457 156.539 67.0126C156.643 66.9464 156.747 66.8803 156.851 66.8141C156.92 66.7479 156.99 66.6487 157.059 66.5164C157.128 66.4171 157.128 66.2848 157.128 66.1855C157.128 66.0532 157.094 65.954 157.059 65.8547C156.99 65.7555 156.92 65.6562 156.851 65.557C156.782 65.4908 156.678 65.4246 156.539 65.3585C156.435 65.2923 156.296 65.2923 156.192 65.2923H155.049V67.0788H156.192V67.0788ZM159.693 68.9645C159.866 68.9645 160.005 69.0306 160.143 69.163C160.282 69.2953 160.351 69.4607 160.351 69.6261C160.351 69.8908 160.317 70.1224 160.213 70.3209C160.109 70.5194 160.005 70.6517 159.901 70.784C159.762 70.9163 159.624 71.0156 159.45 71.1148L159.242 70.8832C159.312 70.8502 159.381 70.784 159.45 70.7178C159.52 70.6517 159.554 70.5855 159.589 70.5193C159.624 70.4532 159.658 70.3539 159.693 70.2216C159.52 70.2216 159.381 70.1554 159.242 70.0231C159.104 69.8908 159.034 69.7584 159.034 69.593C159.034 69.4276 159.104 69.2953 159.242 69.163C159.381 69.0306 159.52 68.9645 159.693 68.9645ZM169.466 69.0637V70.1554H165.307V69.3615L167.595 67.0788C167.734 66.9464 167.837 66.8472 167.941 66.7149C168.011 66.6156 168.115 66.4833 168.184 66.351C168.253 66.2186 168.288 66.0863 168.288 65.954C168.288 65.7224 168.219 65.5239 168.08 65.3915C167.941 65.2592 167.699 65.1931 167.422 65.1931C167.144 65.1931 166.902 65.2592 166.728 65.4246C166.555 65.59 166.486 65.7885 166.486 66.0532H165.307C165.307 65.7885 165.342 65.5239 165.446 65.2923C165.55 65.0607 165.689 64.8622 165.862 64.6968C166.035 64.5314 166.278 64.3991 166.52 64.2998C166.798 64.2006 167.075 64.1675 167.387 64.1675C167.734 64.1675 168.011 64.2006 168.288 64.2998C168.565 64.3991 168.773 64.4983 168.947 64.6637C169.12 64.8291 169.258 64.9946 169.362 65.2261C169.466 65.4246 169.501 65.6562 169.501 65.9209C169.501 66.1524 169.432 66.384 169.328 66.5825C169.224 66.8141 169.085 67.0126 168.947 67.178C168.773 67.3765 168.6 67.575 168.392 67.7735L167.04 69.0968H169.466V69.0637ZM175.601 69.0637V70.1554H171.442V69.3615L173.729 67.0788C173.868 66.9464 173.972 66.8472 174.076 66.7149C174.145 66.6156 174.249 66.4833 174.319 66.351C174.388 66.2186 174.422 66.0863 174.422 65.954C174.422 65.7224 174.353 65.5239 174.215 65.3915C174.076 65.2592 173.833 65.1931 173.556 65.1931C173.279 65.1931 173.036 65.2592 172.863 65.4246C172.69 65.59 172.62 65.7885 172.62 66.0532H171.442C171.442 65.7885 171.477 65.5239 171.581 65.2923C171.685 65.0607 171.823 64.8622 171.996 64.6968C172.17 64.5314 172.412 64.3991 172.655 64.2998C172.932 64.2006 173.209 64.1675 173.521 64.1675C173.868 64.1675 174.145 64.2006 174.422 64.2998C174.7 64.3991 174.908 64.4983 175.081 64.6637C175.254 64.8291 175.393 64.9946 175.497 65.2261C175.601 65.4246 175.636 65.6562 175.636 65.9209C175.636 66.1524 175.566 66.384 175.462 66.5825C175.358 66.8141 175.22 67.0126 175.081 67.178C174.908 67.3765 174.734 67.575 174.526 67.7735L173.175 69.0968H175.601V69.0637Z" fill="white"/>
<defs>
<linearGradient id="paint0_linear_2608_4732" x1="113.635" y1="37.0741" x2="113.635" y2="16.4758" gradientUnits="userSpaceOnUse">
<stop stop-color="#FFEFB9"/>
<stop offset="0.5" stop-color="#FAAC2C"/>
<stop offset="1" stop-color="#FAAC2C" stop-opacity="0"/>
</linearGradient>
</defs>
</svg>
